# xmcd CD database file
#
# Track frame offsets:
#	150
#	10517
#	38537
#	56180
#	76862
#	96032
#	106725
#	118072
#	134120
#	144190
#	155450
#	169467
#	179280
#	199420
#	210497
#	225960
#	243742
#	260085
#	272960
#	288227
#
# Disc length: 4105 seconds
#
# Revision: 2
# Processed by: cddbd v1.4PL0 Copyright (c) Steve Scherf et al.
# Submitted via: CDex 1.40Beta8
#
DISCID=1b100714
DTITLE=Gildo de Freitas - Os grandes Sucessos de Gildo de Freitas
DYEAR=2000
DGENRE=Country
TTITLE0=Trança de china
TTITLE1=Eu reconheço que sou um grosso
TTITLE2=Lembrança do passado
TTITLE3=Nós todos somos iguais
TTITLE4=Resposta do facão 3 listas
TTITLE5=Baile no Chico Torto
TTITLE6=Percorrendo o Rio Grande
TTITLE7=Saudade de Alegrete
TTITLE8=Conhecendo o Brasil
TTITLE9=Briga no carreiramento
TTITLE10=Acordeona
TTITLE11=Que jeito tem a Mariana
TTITLE12=História dos passarinhos
TTITLE13=Já dormi em cemitério
TTITLE14=Faca prateada
TTITLE15=Não enjeito proposta
TTITLE16=Gostei lá do Paraná
TTITLE17=Definição das pilchas
TTITLE18=História de um fazendeiro
TTITLE19=Cinco mulheres
EXTD=\n YEAR: 2000 ID3G: 2
EXTT0=
EXTT1=
EXTT2=
EXTT3=
EXTT4=
EXTT5=
EXTT6=
EXTT7=
EXTT8=
EXTT9=
EXTT10=
EXTT11=
EXTT12=
EXTT13=
EXTT14=
EXTT15=
EXTT16=
EXTT17=
EXTT18=
EXTT19=
PLAYORDER=
